<?xml version="1.0" encoding="utf-8"?>
<!-- Generator: Adobe Illustrator 23.0.0, SVG Export Plug-In . SVG Version: 6.00 Build 0)  -->
<svg version="1.1" id="Layer_1" xmlns="http://www.w3.org/2000/svg" xmlns:xlink="http://www.w3.org/1999/xlink" x="0px" y="0px"
	 viewBox="0 0 700 700" style="enable-background:new 0 0 700 700;" xml:space="preserve">
<path d="M577.82,503.94c-3.26-2.33-23.19-22.21-25.62-25.5c-0.07-1.56,1.05-2.66,1.79-3.89c10.7-17.67,19.02-36.39,24.91-56.19
	c3.54-11.91,6.16-24.01,7.77-36.35c1.44-11.01,2.34-22.04,2.33-33.14c0-7.98-0.7-15.93-1.44-23.88
	c-1.73-18.48-5.73-36.47-11.81-53.97c-14.09-40.54-37.31-74.98-69.76-103.13c-24.79-21.5-52.78-37.33-84.09-47.22
	c-12.7-4.01-25.63-6.94-38.84-8.79c-14.98-2.1-30.01-3.01-45.1-2.22c-34.85,1.83-67.96,10.31-99,26.44
	c-41.78,21.71-74.44,53.04-98.03,93.74c-13.22,22.82-22.3,47.25-27.25,73.19c-1.61,8.42-2.77,16.88-3.6,25.42
	c-1.2,12.41-1.28,24.85-0.46,37.22c1.76,26.73,7.84,52.54,18.32,77.25c13.36,31.49,32.56,58.94,57.6,82.22
	c26.74,24.85,57.49,42.87,92.44,53.6c11.59,3.56,23.4,6.11,35.39,8c16.15,2.55,32.37,2.98,48.63,2.31
	c9.29-0.38,18.52-1.61,27.71-3.16c13.74-2.32,27.12-5.87,40.25-10.49c15.39-5.43,29.98-12.54,43.98-20.89
	c1.01-0.61,2.03-1.22,3.06-1.79c0.24-0.14,0.56-0.15,1.1-0.27c3.13,2.22,5.64,5.34,8.49,8.08c2.98,2.87,5.89,5.83,8.79,8.78
	c2.77,2.81,5.71,5.46,8.18,8.4c-0.88,2.1-2.45,2.75-3.77,3.62c-8.5,5.66-17.37,10.7-26.5,15.26c-18.97,9.49-38.76,16.78-59.42,21.66
	c-9.2,2.17-18.48,3.91-27.86,5.15c-15.13,2.01-30.31,2.85-45.55,2.38c-6.64-0.2-13.26-0.97-19.88-1.48
	c-9.88-0.76-19.62-2.5-29.32-4.47c-17.88-3.62-35.17-9.15-51.89-16.39c-35.08-15.19-65.71-36.77-91.89-64.61
	c-25.97-27.63-45.4-59.29-58.36-94.93c-5.67-15.6-9.86-31.58-12.6-47.93c-1.46-8.73-2.43-17.53-3.12-26.38
	c-0.7-9.02-0.68-18.02-0.67-27.03c0-7.69,0.85-15.33,1.57-22.98c1.4-15.05,4.38-29.81,8.41-44.34c9.93-35.78,26.35-68.3,49.44-97.41
	c24.91-31.4,55.18-56.31,90.8-74.65c20.45-10.53,41.97-18.24,64.43-23.32c9.95-2.25,20-3.88,30.11-5.15
	c4.98-0.63,10.01-0.8,15.02-1.12c4.28-0.28,8.56-0.66,12.84-0.66c5.32,0,10.63,0.34,15.95,0.53c33.3,1.16,65.27,8.36,95.91,21.36
	c31.94,13.54,60.27,32.54,85.1,56.79c24.61,24.04,44.13,51.67,58.52,82.88c9.07,19.67,15.66,40.16,19.82,61.44
	c1.85,9.43,3.23,18.93,4.14,28.48c1.16,12.22,1.55,24.51,0.95,36.78c-1.29,26.41-6.04,52.19-14.64,77.23
	c-7.43,21.64-17.34,42.07-29.78,61.27C580.36,501.12,579.61,502.78,577.82,503.94z"/>
<path d="M311.46,139.12c0.08,1.55,0.17,2.57,0.17,3.58c0.01,8.43,0.01,16.86,0.01,25.29c0,0.74,0.02,1.48-0.03,2.22
	c-0.14,1.96-0.55,2.45-2.59,3.03c-1.14,0.32-2.29,0.59-3.44,0.87c-23.14,5.65-44.32,15.51-63.36,29.79
	c-31.26,23.44-52.86,53.79-64.42,91.16c-3.19,10.31-5.35,20.86-6.51,31.63c-0.7,6.48-1.31,12.97-1.23,19.45
	c0.54,45.27,15.55,85.04,45.69,118.97c1.86,2.1,3.8,4.14,5.76,6.15c0.48,0.49,1.19,0.76,1.86,1.17c1.47-1.04,1.71-2.51,2.13-3.89
	c2.13-6.92,4.17-13.87,6.42-20.75c4.69-14.33,9.71-28.53,15.45-42.48c1.16-2.81,1.22-5.18-0.21-7.98
	c-5.44-10.59-8.89-21.89-10.94-33.6c-1.43-8.19-1.61-16.47-1.3-24.76c1.1-29.59,11.96-55.21,31.95-76.9
	c16.59-18.01,37-29.68,60.82-35.35c11.14-2.65,22.49-3.8,33.88-2.99c31.86,2.26,59.15,14.66,81.11,38.02
	c16.31,17.35,26.49,37.87,30.7,61.38c1.84,10.28,2.27,20.63,1.42,30.92c-2.05,24.52-10.9,46.5-26.45,65.61
	c-17.5,21.5-39.89,35.31-66.9,41.58c-5.18,1.2-10.42,2.09-15.75,2.36c-3.39,0.17-6.78,0.68-10.17,0.67
	c-18.91-0.08-36.94-4.09-53.93-12.49c-0.8-0.39-1.63-0.73-2.36-1.22c-2.43-1.65-4.82-1.54-7.55-0.53
	c-14.97,5.54-29.99,10.93-44.99,16.36c-5.56,2.01-11.12,4-16.67,6.03c-1.36,0.5-2.85,0.78-3.8,1.89c-0.24,1.6,0.86,2.27,1.68,3.04
	c5.28,4.98,10.98,9.46,16.88,13.67c20.63,14.72,43.38,24.61,68.22,29.59c8.25,1.65,16.58,2.93,25.04,3.02
	c2.8,0.03,5.6,0.5,8.41,0.48c26.05-0.19,51.09-5.15,74.79-16.17c38.28-17.81,66.85-45.67,85.74-83.39
	c7.86-15.69,13-32.29,15.79-49.65c1.86-11.57,2.82-23.18,2.3-34.88c-1.35-30.25-9.45-58.55-25.21-84.47
	c-23.21-38.19-56.2-64.18-98.6-78.22c-4.76-1.58-9.68-2.65-14.52-3.99c-2.28-0.63-2.63-1.06-2.83-3.31
	c-0.06-0.74-0.05-1.48-0.05-2.22c0-7.84-0.02-15.68,0.01-23.52c0-1.45-0.23-2.97,0.77-4.55c1.33-0.84,2.91-0.44,4.49-0.12
	c8.54,1.76,16.98,3.96,25.23,6.8c49.97,17.21,88.46,48.58,115.46,93.97c11.97,20.12,20.06,41.79,24.69,64.73
	c1.49,7.38,2.44,14.84,3.19,22.35c1.03,10.34,0.96,20.69,0.53,31.02c-0.41,9.73-1.71,19.42-3.64,28.99
	c-4.08,20.27-10.84,39.59-20.59,57.85c-11.75,22-26.87,41.37-45.42,58.05c-14.94,13.43-31.44,24.55-49.54,33.29
	c-17.13,8.27-35.06,14.1-53.8,17.4c-7.86,1.39-15.76,2.33-23.73,2.87c-5.32,0.36-10.62,0.59-15.94,0.58
	c-7.55-0.01-15.04-0.72-22.54-1.52c-15.65-1.66-30.83-5.35-45.65-10.59c-27.28-9.64-51.51-24.33-72.76-43.94
	c-18.56-17.12-33.62-36.91-45.06-59.42c-9.43-18.56-16.1-38.07-19.63-58.62c-1.25-7.29-2.35-14.58-2.65-21.97
	c-0.15-3.69-0.55-7.37-0.64-11.06c-0.22-9.62,0.49-19.19,1.55-28.75c1.3-11.63,3.66-23.03,6.91-34.26
	c6.38-22.07,16.18-42.51,29.42-61.28c28.46-40.35,66.37-67.67,113.61-81.98c6.21-1.88,12.6-3.16,18.93-4.65
	C308.34,139.19,309.68,139.26,311.46,139.12z M254.72,442.43c1.88,0.32,3.22-0.43,4.57-0.91c10.98-3.96,22.01-7.78,32.86-12.05
	c3.98-1.57,6.97-1.28,10.61,1.02c15.22,9.61,32.1,14.06,49.98,14.78c8.75,0.35,17.41-0.79,25.9-2.89
	c23.24-5.74,42.18-18.21,56.75-37.15c11.04-14.35,17.7-30.56,19.95-48.6c1.2-9.62,1.05-19.18-0.43-28.7
	c-1.72-11.03-5.35-21.46-10.57-31.35c-16.13-30.58-47.9-52.28-86.14-53.9c-9.06-0.38-18,0.67-26.8,2.78
	c-48.65,11.7-84.2,58.88-76.62,112.59c1.84,13.05,6.02,25.24,12.62,36.62c0.59,1.02,1.16,2.06,1.79,3.06
	c0.85,1.36,1.02,2.72,0.32,4.2c-0.69,1.47-1.34,2.96-1.92,4.48c-4.04,10.47-8.06,20.95-12.08,31.43
	C254.98,439.19,254.36,440.54,254.72,442.43z"/>
<path d="M381.67,403.22c-17.36,0.11-31.47-5.36-44.29-14.51c-3.24-2.31-6.25-4.96-9.18-7.66c-3.36-3.11-6.57-6.39-9.73-9.7
	c-9.44-9.91-16.29-21.34-19.81-34.64c-4.17-15.75-2.59-30.99,4.08-45.82c2.08-4.63,5.74-6.51,10.41-7.02
	c4.63-0.51,8.77,0.81,12.45,3.6c0.94,0.71,1.79,1.54,2.7,2.3c9.32,7.71,6.98,23.34-2.05,28.79c-3.47,2.09-4.2,5.07-3.53,8.73
	c1.31,7.11,4.06,13.51,8.73,19.12c6.64,7.98,13.94,15.27,21.93,21.89c5.37,4.45,11.48,7.19,18.28,8.49c1.43,0.27,2.94,0.31,4.4,0.23
	c1.69-0.09,3.11-0.88,4.13-2.28c0.7-0.95,1.33-1.97,2.1-2.85c5.2-5.96,11.85-7.42,19.3-5.9c1.67,0.34,3.41,1.21,4.72,2.3
	c2.25,1.88,4.4,3.97,6.21,6.27c3.2,4.07,3.96,8.87,2.97,13.86c-0.75,3.78-2.69,6.75-6.46,8.41
	C399.85,400.88,390.37,403.38,381.67,403.22z"/>
</svg>
