<?xml version="1.0" encoding="utf-8"?>
<!-- Generator: Adobe Illustrator 23.0.0, SVG Export Plug-In . SVG Version: 6.00 Build 0)  -->
<svg version="1.1" id="Layer_1" xmlns="http://www.w3.org/2000/svg" xmlns:xlink="http://www.w3.org/1999/xlink" x="0px" y="0px"
	 viewBox="0 0 700 700" style="enable-background:new 0 0 700 700;" xml:space="preserve">
<style type="text/css">
	.st0{fill:#306690;}
</style>
<path class="st0" d="M582.95,510.73c-3.31-2.38-23.61-22.61-26.08-25.96c-0.07-1.59,1.07-2.71,1.82-3.96
	c10.89-17.99,19.37-37.05,25.36-57.21c3.61-12.13,6.27-24.45,7.91-37.01c1.47-11.21,2.38-22.44,2.37-33.73
	c0-8.13-0.71-16.22-1.47-24.31c-1.76-18.82-5.84-37.13-12.03-54.94c-14.34-41.28-37.98-76.34-71.02-104.99
	c-25.24-21.89-53.74-38.01-85.61-48.07c-12.93-4.08-26.1-7.06-39.54-8.95c-15.25-2.14-30.55-3.07-45.91-2.26
	c-35.48,1.86-69.19,10.5-100.79,26.92c-42.54,22.11-75.79,53.99-99.8,95.43c-13.46,23.23-22.7,48.1-27.75,74.51
	c-1.64,8.57-2.82,17.19-3.66,25.88c-1.22,12.63-1.3,25.3-0.47,37.89c1.79,27.22,7.98,53.49,18.65,78.64
	c13.6,32.06,33.14,60,58.65,83.7c27.22,25.3,58.53,43.64,94.11,54.56c11.8,3.62,23.82,6.22,36.03,8.15
	c16.44,2.59,32.95,3.04,49.51,2.35c9.46-0.39,18.86-1.64,28.21-3.21c13.99-2.36,27.61-5.97,40.97-10.68
	c15.67-5.53,30.52-12.77,44.78-21.27c1.03-0.62,2.06-1.24,3.11-1.83c0.25-0.14,0.57-0.15,1.12-0.28c3.19,2.26,5.74,5.43,8.64,8.23
	c3.03,2.93,5.99,5.93,8.95,8.94c2.82,2.86,5.82,5.56,8.32,8.55c-0.9,2.14-2.5,2.8-3.84,3.69c-8.66,5.76-17.69,10.89-26.98,15.54
	c-19.32,9.66-39.46,17.08-60.49,22.05c-9.37,2.21-18.81,3.98-28.36,5.24c-15.4,2.04-30.86,2.9-46.38,2.42
	c-6.76-0.21-13.5-0.98-20.24-1.51c-10.06-0.78-19.97-2.55-29.85-4.55c-18.21-3.69-35.8-9.31-52.83-16.68
	c-35.72-15.46-66.9-37.43-93.55-65.78c-26.44-28.13-46.22-60.36-59.42-96.65c-5.77-15.88-10.04-32.15-12.83-48.8
	c-1.49-8.89-2.48-17.85-3.17-26.86c-0.71-9.18-0.69-18.35-0.69-27.52c0-7.83,0.87-15.61,1.59-23.4c1.43-15.33,4.46-30.35,8.56-45.14
	c10.11-36.42,26.82-69.53,50.33-99.17c25.36-31.97,56.18-57.33,92.44-76c20.82-10.72,42.73-18.57,65.59-23.75
	c10.13-2.29,20.37-3.95,30.66-5.25c5.07-0.64,10.19-0.81,15.29-1.14c4.36-0.28,8.72-0.67,13.07-0.67c5.41,0,10.83,0.35,16.24,0.54
	c33.9,1.18,66.45,8.52,97.64,21.74c32.52,13.79,61.36,33.12,86.64,57.82c25.05,24.48,44.92,52.6,59.57,84.38
	c9.23,20.02,15.94,40.89,20.18,62.55c1.88,9.6,3.29,19.28,4.21,28.99c1.19,12.44,1.58,24.96,0.97,37.44
	c-1.31,26.88-6.15,53.13-14.9,78.63c-7.56,22.03-17.65,42.83-30.31,62.37C585.53,507.86,584.77,509.55,582.95,510.73z"/>
<path class="st0" d="M311.78,139.32c0.08,1.58,0.17,2.62,0.17,3.65c0.01,8.58,0.01,17.17,0.01,25.75c0,0.75,0.02,1.51-0.03,2.26
	c-0.14,1.99-0.56,2.5-2.63,3.08c-1.16,0.33-2.33,0.6-3.5,0.88c-23.55,5.75-45.12,15.79-64.51,30.33
	c-31.83,23.86-53.81,54.76-65.58,92.8c-3.25,10.5-5.45,21.23-6.63,32.2c-0.71,6.6-1.33,13.21-1.25,19.8
	c0.55,46.09,15.84,86.58,46.51,121.12c1.9,2.14,3.87,4.22,5.86,6.26c0.49,0.5,1.21,0.77,1.89,1.19c1.5-1.06,1.74-2.56,2.17-3.96
	c2.17-7.04,4.25-14.12,6.54-21.12c4.77-14.58,9.89-29.05,15.73-43.24c1.18-2.87,1.24-5.28-0.22-8.12
	c-5.54-10.79-9.05-22.28-11.14-34.2c-1.46-8.33-1.64-16.77-1.32-25.21c1.12-30.12,12.18-56.2,32.53-78.29
	c16.89-18.33,37.67-30.22,61.92-35.99c11.34-2.7,22.89-3.87,34.5-3.04c32.44,2.3,60.22,14.92,82.58,38.7
	c16.6,17.66,26.97,38.55,31.26,62.49c1.87,10.46,2.32,21,1.44,31.48c-2.08,24.97-11.1,47.34-26.93,66.8
	c-17.82,21.89-40.61,35.95-68.11,42.33c-5.27,1.22-10.61,2.13-16.04,2.41c-3.45,0.17-6.9,0.69-10.35,0.68
	c-19.25-0.08-37.6-4.17-54.9-12.72c-0.81-0.4-1.66-0.74-2.4-1.25c-2.48-1.68-4.91-1.56-7.69-0.53
	c-15.24,5.64-30.53,11.12-45.8,16.66c-5.66,2.05-11.32,4.07-16.97,6.14c-1.38,0.51-2.91,0.79-3.87,1.92
	c-0.25,1.63,0.88,2.31,1.71,3.09c5.38,5.07,11.18,9.63,17.19,13.92c21.01,14.99,44.17,25.06,69.46,30.13
	c8.4,1.68,16.88,2.98,25.49,3.08c2.85,0.03,5.71,0.51,8.56,0.49c26.52-0.19,52.02-5.24,76.14-16.47
	c38.97-18.13,68.06-46.5,87.29-84.9c8-15.97,13.24-32.88,16.08-50.54c1.9-11.78,2.88-23.6,2.35-35.51
	c-1.37-30.8-9.62-59.61-25.66-86c-23.63-38.88-57.22-65.34-100.38-79.63c-4.85-1.6-9.86-2.7-14.79-4.06
	c-2.33-0.64-2.68-1.08-2.88-3.37c-0.06-0.75-0.05-1.5-0.05-2.26c0-7.98-0.02-15.96,0.01-23.94c0-1.48-0.24-3.02,0.78-4.64
	c1.36-0.85,2.97-0.45,4.58-0.12c8.7,1.8,17.28,4.03,25.68,6.92c50.88,17.52,90.06,49.46,117.55,95.67
	c12.19,20.48,20.42,42.55,25.13,65.9c1.52,7.51,2.49,15.11,3.25,22.76c1.05,10.53,0.97,21.06,0.53,31.58
	c-0.41,9.91-1.74,19.77-3.71,29.51c-4.16,20.63-11.03,40.31-20.96,58.89c-11.96,22.4-27.35,42.11-46.24,59.09
	c-15.21,13.68-32.01,25-50.43,33.89c-17.44,8.42-35.69,14.35-54.77,17.72c-8.01,1.41-16.05,2.37-24.16,2.92
	c-5.41,0.37-10.81,0.6-16.23,0.59c-7.68-0.01-15.32-0.73-22.95-1.55c-15.94-1.7-31.39-5.45-46.47-10.78
	c-27.77-9.81-52.44-24.77-74.07-44.74c-18.89-17.43-34.23-37.58-45.87-60.5c-9.6-18.9-16.39-38.75-19.98-59.68
	c-1.28-7.42-2.39-14.84-2.7-22.37c-0.15-3.76-0.56-7.5-0.65-11.26c-0.23-9.79,0.5-19.53,1.58-29.27
	c1.32-11.84,3.72-23.45,7.03-34.88c6.5-22.47,16.47-43.28,29.95-62.39c28.97-41.08,67.57-68.89,115.67-83.47
	c6.32-1.92,12.83-3.22,19.27-4.73C308.59,139.39,309.97,139.46,311.78,139.32z M254.01,448.11c1.91,0.32,3.27-0.43,4.65-0.93
	c11.17-4.03,22.41-7.92,33.46-12.27c4.06-1.6,7.09-1.3,10.81,1.04c15.5,9.78,32.68,14.32,50.89,15.04
	c8.91,0.36,17.73-0.81,26.37-2.94c23.66-5.85,42.94-18.54,57.77-37.82c11.24-14.61,18.02-31.11,20.31-49.48
	c1.22-9.79,1.07-19.52-0.44-29.22c-1.75-11.23-5.45-21.85-10.76-31.92c-16.43-31.14-48.76-53.22-87.69-54.87
	c-9.22-0.39-18.33,0.68-27.29,2.83c-49.53,11.91-85.72,59.94-78.01,114.62c1.87,13.28,6.13,25.7,12.84,37.28
	c0.6,1.04,1.18,2.1,1.82,3.12c0.87,1.38,1.03,2.76,0.32,4.28c-0.7,1.5-1.36,3.02-1.96,4.56c-4.11,10.66-8.2,21.33-12.29,32
	C254.28,444.82,253.64,446.19,254.01,448.11z"/>
<path class="st0" d="M383.25,408.19c-17.67,0.11-32.04-5.45-45.09-14.77c-3.29-2.35-6.36-5.05-9.34-7.8
	c-3.42-3.16-6.69-6.5-9.91-9.88c-9.61-10.09-16.59-21.73-20.17-35.26c-4.25-16.04-2.63-31.55,4.15-46.65
	c2.12-4.71,5.84-6.63,10.6-7.15c4.71-0.52,8.93,0.82,12.68,3.67c0.96,0.73,1.82,1.57,2.75,2.34c9.49,7.85,7.11,23.76-2.09,29.31
	c-3.54,2.13-4.28,5.16-3.59,8.89c1.34,7.23,4.13,13.76,8.89,19.47c6.76,8.12,14.19,15.55,22.33,22.29
	c5.47,4.53,11.69,7.32,18.61,8.64c1.46,0.28,3,0.31,4.48,0.23c1.72-0.09,3.16-0.9,4.2-2.32c0.71-0.97,1.35-2,2.14-2.9
	c5.3-6.07,12.06-7.56,19.65-6c1.7,0.35,3.47,1.23,4.81,2.34c2.29,1.91,4.48,4.04,6.32,6.38c3.26,4.14,4.03,9.03,3.02,14.11
	c-0.77,3.85-2.74,6.87-6.57,8.56C401.77,405.81,392.11,408.35,383.25,408.19z"/>
</svg>
